<?xml version="1.0" encoding="utf-8"?>
<!-- Generator: Adobe Illustrator 24.3.0, SVG Export Plug-In . SVG Version: 6.00 Build 0)  -->
<svg version="1.1" id="Layer_1" xmlns="http://www.w3.org/2000/svg" xmlns:xlink="http://www.w3.org/1999/xlink" x="0px" y="0px"
	 viewBox="0 0 348.47 350" style="enable-background:new 0 0 348.47 350;" xml:space="preserve">
<style type="text/css">
	.st0{fill:#FBEBDB;}
	.st1{fill:#FAB17E;}
	.st2{fill:#243962;}
	.st3{fill:#EE9960;}
	.st4{fill:#2B488C;}
	.st5{fill:#F89748;}
</style>
<g>
	<path class="st0" d="M0,141C0,41.81,74.06,12.79,152.27,2.15c158.31-21.55,196.2,123.62,196.2,222.76
		c0,49.45-29.59,80.69-68.84,99.59c-9.12,4.35-18.53,8.04-28.16,11.07c-20.71,6.41-42.03,10.66-63.62,12.66
		c-12.38,1.23-24.38,1.77-35.58,1.77c-24,0-44.79-5.23-62.61-14.43C25.78,302.58,0,218.47,0,141"/>
	<path class="st1" d="M158.02,246.29c-2.1,1-9.29,17-17,33.5l4.54-67.34c0,0,3-7.43,3-10.82s3.7-30.15,1.83-31
		s-11.63,11.92-12.6,17.69c-0.59,3.45,0.7,19.69,0.7,19.69l0,0c-2.08,6-27.43,78.82-30.84,111.64c-1,9.49-0.14,15.64,3.64,15.85
		c0.96,0.05,1.91,0.05,2.87,0c3.88-0.37,7.68-1.34,11.26-2.89h0.1c3.78-1.49,7.37-3.43,10.68-5.79l0.23-0.15
		c1-0.66,1.52-1.07,1.52-1.07v-0.05c11-8.27,19.89-20.44,26.14-30.83c3.93-6.47,7.4-13.21,10.38-20.17
		C180.54,248.28,164.96,243.08,158.02,246.29z"/>
	<path class="st2" d="M178.47,187.54c0,0,16.91,3.64,11.16,27.06c0,0,13-2.9,15.07-8.45c0,1.08-0.1,2.17-0.32,3.23
		c0,0,11.69-6.44,14.64-13.65s-29.41-76.54-58-49.31c0,0-28,13.87-9.91,50.22s7.92,42.51,7.92,42.51s3.53,0,4.9-0.85
		c0,0,1.62-2.13,1.46-3.71c0.24,1.09,0.32,2.21,0.24,3.32c0,0,11.52-5.39,14.94-13.75S183.25,194.4,178.47,187.54z"/>
	<path class="st1" d="M214.26,232c1,10.22,0.92,26.23-8.82,29.3c-6.11,1.92-10.49,5-14,7.06c-4.83,2.86-8,3.82-11.75-2.74
		c-6.48-11.3-4-27.12-4-27.12l1.29-0.52c-3-7.16-5.84-14.63-7-19.52l21.92-13.7l2.06-1.28c1.71,2.43,3.54,4.76,5.49,7
		c4.53,5.28,11.54,12.36,19.7,16.9L214.26,232z"/>
	<path class="st3" d="M195.38,264.84l-3.91,3.51c-4.83,2.86-8,3.82-11.75-2.74c-6.48-11.3-4-27.12-4-27.12l1.29-0.52
		c-3-7.16-5.84-14.63-7-19.52l21.92-13.7c1.24,1.63,3.65,4.67,7,8.35C201.02,225.33,203,247,195.38,264.84z"/>
	<path class="st2" d="M189,205.24c0,0,4.08-16.45,3.08-29c-0.72-9-1.56-46.63-26.74-33.2c0,0-17.43,10.75-23.24,19
		c-4.62,6.59-10.52,19.43,5,43.92l4.53,8.52L189,205.24z"/>
	<path class="st1" d="M178.52,226.07c-2.88,2.58-5.99,4.9-9.29,6.92c-8.27,4-27.69-32.71-29.31-41.37s-1.45-19.77,18.66-30.23
		c14.16-7.36,19.55-0.67,24.81,12c2.21,5.32,4.4,11.71,7.21,18.54C196.53,206.39,186.73,218.79,178.52,226.07z"/>
	<path class="st3" d="M180,224.72c1.66-17.55-18.37-46.74-18.37-46.74l21.76-4.57c2.21,5.32,4.4,11.71,7.21,18.54
		C196.53,206.39,188.2,217.44,180,224.72z"/>
	<path class="st2" d="M147.39,170.21c0,0-3.77,9.84-2.87,16.65s5.2,19.34,2.12,20.69c0,0-13.9-14.61-11.1-29.33
		C138.47,162.61,147.39,170.21,147.39,170.21z"/>
	<path class="st2" d="M144.41,169.27c0,0,0.76,0.79,2.1,2.07c0.06,0.31,0.09,0.49,0.09,0.49s17.67,24.78,37.65,24.06
		c-7.43-2.66-14.39-6.51-20.59-11.4c5.89,3.36,12.2,5.57,17.49,4.2c4.4-0.63,13.78,19.33,2.35,27.15c0,0,16.49-1.22,21.19-9.69
		c0.02,1.08-0.09,2.17-0.31,3.23c0,0,11.69-6.44,14.64-13.65S174.23,126.87,144.41,169.27z"/>
	<path class="st3" d="M164.07,294.7c-6.25,10.39-15.14,22.56-26.14,30.83v0.05c0,0-0.55,0.41-1.52,1.07l-0.23,0.15
		c-3.32,2.36-6.92,4.31-10.71,5.79h-0.1c-3.58,1.55-7.38,2.52-11.26,2.89c3.38-0.82,6.57-2.28,9.41-4.29
		c5.59-3.81,10.67-9.49,15-15.54c9.83-13.59,16.06-29,16.4-29.13L164.07,294.7z"/>
	<path class="st4" d="M256.21,243L256.21,243c-0.92-2.14-1.84-4.18-2.76-6.09c-4-8.32-8.14-14.41-12.17-17.15l0,0
		c-2.22-1.5-6.22-1.64-11.32-0.84l0,0c-5.74,1.03-11.38,2.5-16.89,4.41l0,0c0,0-3.91,17-10,28.47c-1.45,2.97-3.4,5.68-5.76,8
		c-1.3,1.31-3.01,2.12-4.84,2.3c-3.89,0.27-7.73-0.99-10.71-3.51c-4.23-3.63-6.39-9.79-5.46-17l0,0l0.7-3.55l0,0l0,0v-0.06l0,0
		c-0.57,0.18-20.09,6.37-23.77,12.83c-3.68,6.46-9.25,21.62-9.25,21.62s8.52,28.13,22.31,32.1v0.08c0.65,8.25,6.11,19.77,13.09,31
		c2.68,4.33,5.59,8.62,8.53,12.66c21.57-2.02,42.87-6.28,63.56-12.7c9.63-3.03,19.04-6.73,28.15-11.07
		C273.67,295.58,265.24,264.17,256.21,243z"/>
	<path class="st1" d="M233.17,220.39c-2.89,1.42-14.2,29.07-24.81,52.32L186.97,189c0,0-0.11-15.09-2-18.66s-9-11.25-11.64-10.36
		s0.88,8,1.47,12.22s0.88,6.24,0.59,6.43s-2.17-7.22-3-6.86s0.61,9.46,1.2,11.24s4.88,4.79,5.48,8.08
		c0.4,21.73,3.4,150.84,18.6,144.91c0.12-0.05,0.24-0.11,0.34-0.2c0.94-0.56,1.87-1.12,2.77-1.71l0,0l0,0
		c32.57-20.9,45.39-57.27,49.56-72.83c1.24-4.63,1.71-7.42,1.71-7.42C258.94,222.57,241.1,216.53,233.17,220.39z"/>
	<path class="st5" d="M173.8,97.6c-1.14-1.52-2.94-2.41-4.84-2.4c-1.93-0.01-3.75,0.88-4.94,2.4c-1.36,1.67-2.07,3.78-2,5.93
		c-0.04,2.14,0.7,4.23,2.09,5.86c1.16,1.53,2.96,2.44,4.88,2.47c1.9,0.01,3.7-0.88,4.84-2.41c2.59-3.52,2.59-8.33,0-11.85H173.8z
		 M185.47,29.73c-4.09-4.26-9.78-6.6-15.68-6.45c-4.05,0.01-8.01,1.17-11.42,3.34c-3.66,2.27-6.58,5.55-8.43,9.44
		c-1.19,2.33-1.82,4.9-1.84,7.52c-0.07,1.74,0.47,3.46,1.51,4.86c0.88,1.23,2.31,1.96,3.82,1.94c1.81,0,3.39-1.13,4.74-3.4
		l3.87-6.34c1.81-2.24,4.57-3.5,7.45-3.4c2.48-0.07,4.88,0.88,6.63,2.64c1.78,1.76,2.67,4.24,2.67,7.45c0,3.68-0.94,6.53-2.81,8.56
		c-1.35,1.49-3.68,2.86-7,4.11c-2.45,0.94-4.08,1.89-4.88,2.87c-0.9,1.28-1.33,2.84-1.21,4.4V79c-0.08,2.06,0.46,4.1,1.54,5.86
		c0.93,1.51,2.59,2.41,4.36,2.35c3,0,4.94-1.8,5.71-5.4c0.35-3.19,0.48-6.41,0.38-9.62c5.07-1.09,9.54-4.04,12.54-8.27
		c3.07-4.26,4.6-9.64,4.6-16.13C192.01,40.37,189.82,34.35,185.47,29.73z"/>
	<path class="st5" d="M211.47,103.34c-0.41-1.43-1.4-2.62-2.72-3.3c-1.21-0.66-2.68-0.68-3.91-0.06c-1.34,0.68-2.34,1.89-2.76,3.33
		c-0.54,1.52-0.54,3.18,0,4.7c0.43,1.43,1.42,2.64,2.74,3.34c1.2,0.66,2.65,0.66,3.85,0c1.35-0.69,2.36-1.9,2.8-3.35
		C211.99,106.49,211.99,104.85,211.47,103.34z M235.19,61.25c-1.75-4.26-5.01-7.72-9.14-9.75c-2.63-1.35-5.59-1.93-8.53-1.65
		c-2.96,0.28-5.74,1.52-7.92,3.53c-1.36,1.21-2.4,2.74-3,4.46c-0.46,1.23-0.5,2.57-0.12,3.82c0.31,1.14,1.1,2.09,2.15,2.62
		c1.23,0.63,2.56,0.4,4-0.68l4.11-3c1.87-0.89,4.06-0.8,5.85,0.25c1.75,0.85,3.13,2.3,3.88,4.09c0.81,1.91,0.83,4.07,0.07,6
		c-0.86,2.49-2.16,4.11-3.9,4.85c-1.83,0.6-3.79,0.74-5.69,0.4c-1.33-0.26-2.71-0.16-4,0.27c-0.9,0.59-1.54,1.5-1.8,2.54l-2.74,8
		c-0.54,1.44-0.65,3.01-0.32,4.51c0.28,1.33,1.16,2.46,2.38,3.05c2.06,1,3.77,0.48,5.14-1.7c0.99-2.07,1.83-4.21,2.5-6.4
		c3.51,1.02,7.29,0.54,10.44-1.31c3.07-1.84,5.36-4.96,6.88-9.37c1.75-4.7,1.67-9.89-0.22-14.53L235.19,61.25z"/>
	<path class="st5" d="M137.55,116.23c-0.7-1.25-1.92-2.13-3.33-2.4c-1.36-0.22-2.75,0.24-3.7,1.24c-1.14,1.07-1.85,2.53-2,4.09
		c-0.21,1.59,0.14,3.2,1,4.56c0.72,1.23,1.97,2.07,3.38,2.27c1.38,0.22,2.78-0.24,3.76-1.23c1.12-1.04,1.81-2.47,1.93-4
		C138.77,119.18,138.41,117.58,137.55,116.23z M126.35,74.94c-2.76-4.32-6.27-6.63-10.53-6.93c-4.04-0.21-7.88,1.38-11.52,4.79
		c-2.4,2.28-4.24,5.07-5.4,8.17c-1.28,3.2-1.77,6.65-1.43,10.08c0.14,1.9,0.72,3.74,1.71,5.37c0.57,1.01,1.55,1.74,2.68,2
		c1.09,0.18,2.19-0.19,2.94-1c1.14-1.23,1.68-2.9,1.5-4.57l-0.09-5.79c0.25-2.31,1.34-4.45,3.07-6c1.27-1.33,3.03-2.07,4.87-2.06
		c1.68,0.05,3.12,1.01,4.31,2.88c1.3,1.9,1.85,4.22,1.54,6.51c-0.47,2.2-1.33,4.3-2.53,6.2c-0.86,1.32-1.47,2.79-1.78,4.33
		c-0.07,1.15,0.25,2.28,0.92,3.22l4.35,6.83c0.68,1.21,1.77,2.12,3.08,2.57c1.23,0.34,2.55-0.05,3.4-1c1.75-1.57,2.29-4.1,1.33-6.25
		c-0.95-2.02-2.05-3.97-3.3-5.82c2.54-3.37,4.01-7.43,4.24-11.64C129.88,82.61,128.7,78.45,126.35,74.94z"/>
	<path class="st3" d="M250.47,261.18c-4.17,15.56-17,51.93-49.56,72.83c17.67-12,33.55-71.9,33.55-71.9L250.47,261.18z"/>
	<path class="st4" d="M228.66,219.36c0,0,18.3-7.37,25,10.84c6.7,18.21-0.69,48.8-0.69,48.8s-32.15-2.14-37.13-30.53L228.66,219.36z
		"/>
	<path class="st5" d="M251.47,335.57c-20.71,6.41-42.03,10.66-63.62,12.66c-12.38,1.23-24.38,1.77-35.58,1.77
		c-24,0-44.79-5.23-62.61-14.43H251.47z"/>
</g>
</svg>
