<?xml version="1.0" encoding="utf-8"?>
<!-- Generator: Adobe Illustrator 24.3.0, SVG Export Plug-In . SVG Version: 6.00 Build 0)  -->
<svg version="1.1" id="Layer_1" xmlns="http://www.w3.org/2000/svg" xmlns:xlink="http://www.w3.org/1999/xlink" x="0px" y="0px"
	 viewBox="0 0 350 150" style="enable-background:new 0 0 350 150;" xml:space="preserve">
<style type="text/css">
	.st0{fill:#FBEBDB;}
	.st1{fill:#2E3B65;}
	.st2{fill:#FAB17E;}
	.st3{fill:#EE9960;}
	.st4{fill:#F89748;}
	.st5{fill:#EC7E2A;}
	.st6{fill:#82B379;}
	.st7{fill:#A8D29F;}
	.st8{fill:#2B488C;}
	.st9{fill:#2E3652;}
</style>
<g>
	<g>
		<path class="st0" d="M310.45,149.49c0,0,7.06-84.29-65.22-84.29c-78.08,0-32.5-49.15-84.12-63.36
			c-45.56-12.54-74.66,41.75-55.7,75.86C119.05,102.26,63.34,115.87,70,150L310.45,149.49z"/>
		<g>
			<path class="st1" d="M172.23,27.64c-0.37-0.72-4.56-8.38-15.82-2.67c0,0,5.77-2.3,7.92-0.21c0,0-5.2-1.18-7.74,1.53
				c-2.54,2.71-1.63,9.47-0.77,11.38c0.86,1.91,5.37,7.11,7.53,6.57c0.82-0.2,1.63-0.72,2.32-1.28c-0.11,1.15-0.16,2.39-0.14,3.72
				c0.17,12.35,9.21,19.52,12.45,16.38c2.08-2.01,4.83,2.09,4.83,2.09l13.75-33.51C196.56,31.65,179.05,17.03,172.23,27.64z"/>
			<path class="st2" d="M204.28,97.25c-2.88,2.19-6.5,3.99-11.03,5.13c-17,4.3-23.52-11.42-25.97-22.21
				c2.32-1.45,4.5-1.77,5.76-1.94c1.23-0.16,2.52-0.26,3.59-0.32c1.91-1.6,4.75-8.15,5.38-18.31l0.8,0.23l13.4,4.01
				c0,0-0.61,4.66-0.91,9.06c-0.23,3.45-0.27,6.74,0.33,7.54c1.05,0.25,1.67,0.41,1.67,0.41s0,0,0.01,0.01
				C197.49,81.21,201.38,88.2,204.28,97.25z"/>
			<path class="st3" d="M196.22,63.86c0,0-0.62,4.65-0.91,9.06c-7.59-0.83-11.12-8.74-12.49-13.07L196.22,63.86z"/>
			<path class="st2" d="M200.37,65.47c0,0-17.53,4.71-20.04-7.27c-2.52-11.98-6.47-19.44,4.61-22.96
				c11.08-3.52,14.23,0.51,15.95,4.29C202.62,43.3,204.86,63.93,200.37,65.47z"/>
			<path class="st1" d="M198.98,32.99c-3.47-2.93-5.36-1.62-6.29-0.25c-10.82-3.38-15.23,6.72-15.23,6.72
				c0.62,8.89-4.02,15.24-4.02,15.24s3.66,1.37,10.62-2.56c2.13-1.2,3.78-3.46,5.04-6.01c-1.85,6.23-5.09,11.2-5.09,11.2
				c7.9-6.67,8.64-20.99,8.7-22.5c1.29,0.79,3.89,2.55,5,4.63c1.51,2.83,3.22,9.02,4.85,8.39
				C202.55,47.84,204.18,37.38,198.98,32.99z"/>
			<path class="st4" d="M204.28,82.4c-2.45-1.42-5.6-2.48-9.02-3.26c0,0-1.77,4.97-7.15,4.87c-5.11-0.1-10.17-6.29-10.66-6.9
				c-5.86-0.21-10.16,0-10.16,0s-12.34,21.12-10.81,26.01c1.01,3.22,1.8,6.41,2.42,9.5c2.87,14.4,1.96,26.95,1.23,32.82
				c-0.28,2.27-0.54,3.55-0.54,3.55l38.86,0.99c0,0,3.22-12.54,5.61-23.23c0.07-0.32,0.14-0.64,0.21-0.96
				c1.62,3.65,6.21,9.13,8.29,9.56c0.12,0.03,0.71,0.04,1.55,0.05c3.11,0.03,9.13,0.07,9.13,0.07
				C224.39,125.39,209.34,84.8,204.28,82.4z"/>
			<path class="st5" d="M160.12,145.44c0.73-5.87,1.64-18.42-1.23-32.82c0.01-0.17,0.02-0.26,0.02-0.26s10.63,11.11,12.47,22.72
				C172.63,143.01,164.98,145.08,160.12,145.44z"/>
			<path class="st2" d="M190.26,135.08c-0.22-0.77-3.75-4.7-5.66-5.18c-1.91-0.48-8.22,1.1-8.22,1.1l0,0
				c-3.91-0.57-12.84-2.1-23.29-5.42c-1.84-0.58-3.73-1.22-5.65-1.93l15.92-15.7l14.08-30.85c0,0-11.94-1.03-14.96,0.94
				c-10.88,7.09-31.03,48.46-30.64,57.03c0,0,5.1,0.31,14.43,0.44c7.16,0.1,16.82,0.1,28.56-0.23c0,0,1.29-0.01,2.65-0.2H190.26z"/>
			<path class="st4" d="M163.37,107.96l-14.04,15.88c1.38,0.57,2.83,1.39,3.77,1.74c0,0-1.28,6.04-6.83,9.93
				c-9.32-0.13-14.43-0.44-14.43-0.44c-0.38-8.57,19.77-49.94,30.64-57.03c3.02-1.97,14.96-0.94,14.96-0.94L163.37,107.96z"/>
			<path class="st5" d="M223.23,135.47c-0.84-0.01-10.55-0.1-10.68-0.12c-2.08-0.43-6.67-5.91-8.29-9.56
				c-0.07,0.32,0.51-3.45,1.06-4.98c1.17-3.3,2.74-6.09,2.74-6.09C213.65,113.79,223.25,129.67,223.23,135.47z"/>
			<path class="st2" d="M222.9,125.89c-1.24-10.25-3.88-28.01-9.08-48.46l-0.03,0c-0.31-1.29-2.72-11.36-3.73-12.47
				c-1.08-1.18-6.76-3.65-7.74-3.91c0,0-0.16,0.71,0.43,1.28c0.17,0.16,0.5,0.42,0.9,0.7l-1.35,0.79c0,0,0.51,0.48,1.26,0.36
				c0.36-0.06,0.85-0.2,1.26-0.34c0.28,0.19,0.55,0.37,0.8,0.53c0.42,0.44,0.93,0.99,0.97,1.19c0.05,0.23,0.23,1.27,0.35,1.92
				c-0.21-0.2-0.39-0.41-0.5-0.6c-0.54-0.91-1.67-0.82-1.67-0.82s1.54,2.12,1.69,3.49c0.22,2.09,1.29,3.19,1.29,3.19l0,0
				c0.39,0.51,0.95,0.96,1.41,2.02c0.34,0.78,0.48,2.26,0.57,3.12l0,0c0.23,3.09,1.02,14.48,0.81,22.86
				c-0.29,11.29-1.27,21.4-0.11,27.68c0.3,1.63,0.74,2.99,1.38,4.06c2.53,4.24,11.42,3,11.42,3S223.61,131.8,222.9,125.89z"/>
			<path class="st4" d="M223.23,135.47c0,0-8.89,1.24-11.42-3c-0.64-1.06-1.08-2.43-1.38-4.06c1.91,0.52,7.12,1.4,12.47-2.52
				C223.61,131.8,223.23,135.47,223.23,135.47z"/>
		</g>
		<g>
			<g>
				<path class="st6" d="M290.03,130.18c0,0-7.23-9.23-0.45-15.09c0,0,4.96-3.28,9-3.01c0,0-5.73,10.5-3.87,11.55
					c1.85,1.04,5.61-12.2,5.61-12.2s11.28-1.2,14.91,0.71c0,0-9.64,8.63-7.61,9.14c2.03,0.51,12.44-7.96,12.44-7.96
					s10.5,1.95,9.94,8.96c-0.56,7-4.18,9.16-5.77,8.98c-1.59-0.19-10.89-4.07-11.09-2.64c-0.2,1.42,5.39,6.08,9.31,6.3
					c0,0-7.4,8.93-12.32,6.35c-4.92-2.58-5.34-6.66-8.4-8.19c-3.07-1.53-5.68-1.53-4.42,0.03c1.27,1.56,6.81,3.08,8.57,6.47
					c1.75,3.39,3.33,5.68-1.76,4.84c-5.09-0.84-13.36-4.91-13.72-9.57C290.03,130.18,290.03,130.18,290.03,130.18z"/>
				<g>
					<path class="st6" d="M324.83,122.47c0,0-28.51-1.2-34.8,7.72c0,0-1.39,4.56-5.68,8.71l-0.67,1.99c0,0,4.94-5.7,6.71-6.04
						C290.39,134.85,287.63,123.8,324.83,122.47z"/>
					<path class="st6" d="M285.54,138.85c-0.25,0.29-0.61,0.69-1.14,1.22c-0.01,0.01-0.02,0.02-0.03,0.03
						c-0.17,0.17-0.34,0.36-0.5,0.56c-1.02,1.23-1.89,2.9-2.6,4.61c-0.14,0.34-0.28,0.68-0.41,1.02h-1.67
						c0.14-0.35,0.29-0.69,0.44-1.02c1.94-4.15,4.7-6.38,4.7-6.38s0,0,0,0C284.46,138.83,286.92,137.2,285.54,138.85z"/>
				</g>
			</g>
			<g>
				<path class="st7" d="M270.07,118.37c0,0,11.5-7.04,6.13-16.6c0,0-4.29-5.87-8.89-7.38c0,0,2.45,14.26,0,14.59
					c-2.45,0.34-1.69-16.1-1.69-16.1s-12.12-6.37-16.87-5.87c0,0,7.51,13.92,5.06,13.59c-2.45-0.34-10.89-14.42-10.89-14.42
					s-12.42-2.52-14.42,5.53c-1.99,8.05,1.23,12.08,3.07,12.58c1.84,0.5,13.65,0.34,13.34,2.01c-0.31,1.68-8.28,4.36-12.73,2.85
					c0,0,4.91,13.25,11.35,12.58c6.44-0.67,8.43-5.03,12.42-5.37c3.99-0.34,6.9,0.84,4.91,2.01c-1.99,1.17-8.74,0.38-11.96,3.38
					c-3.22,2.99-5.83,4.84,0.15,6.18c5.98,1.34,16.72,0.5,18.86-4.53C270.07,118.37,270.07,118.37,270.07,118.37z"/>
				<g>
					<path class="st6" d="M234.18,94.22c0,0,32.21,11.4,35.89,24.15c0,0-0.15,5.7,3.07,12.24v2.52c0,0-3.37-8.55-5.21-9.73
						C267.92,123.4,275.13,112.33,234.18,94.22z"/>
					<path class="st6" d="M275.99,145.28c-0.04,0.34-0.08,0.67-0.14,1.02h-1.67c0.02-0.31,0.04-0.65,0.05-1.02
						c0.15-3.4,0.12-8.75-1.21-12.43c-0.01-0.02-0.01-0.03-0.02-0.05c-0.11-0.31-0.23-0.61-0.37-0.89c0-0.01-0.01-0.01-0.01-0.02
						c-0.38-0.81-0.63-1.41-0.8-1.84c0,0,0,0,0,0c-0.92-2.47,1.21,0.44,1.31,0.57c0,0,0,0,0,0S276.95,136.95,275.99,145.28z"/>
				</g>
			</g>
			<g>
				<path class="st7" d="M283.92,103.99c0,0-15.16-9.29-8.09-21.89c0,0,5.66-7.74,11.72-9.73c0,0-3.23,18.79,0,19.23
					c3.23,0.44,2.22-21.22,2.22-21.22s15.97-8.4,22.24-7.74c0,0-9.91,18.35-6.67,17.91c3.23-0.44,14.35-19.01,14.35-19.01
					s16.37-3.32,19,7.3c2.63,10.61-1.62,15.92-4.04,16.58c-2.43,0.66-17.99,0.44-17.59,2.65c0.4,2.21,10.92,5.75,16.78,3.76
					c0,0-6.47,17.47-14.96,16.58c-8.49-0.88-11.12-6.63-16.37-7.07c-5.26-0.44-9.1,1.11-6.47,2.65c2.63,1.55,11.52,0.51,15.77,4.45
					c4.25,3.95,7.68,6.38-0.2,8.15c-7.88,1.77-22.03,0.66-24.86-5.97C283.92,103.99,283.92,103.99,283.92,103.99z"/>
				<g>
					<path class="st6" d="M331.23,72.15c0,0-42.45,15.03-47.3,31.84c0,0,0.2,7.52-4.04,16.14v3.32c0,0,4.45-11.28,6.87-12.82
						C286.75,110.62,277.25,96.03,331.23,72.15z"/>
					<path class="st6" d="M279.88,120.13c0,0-6.55,10.87-2.81,24.11l1.68-0.49c0,0-1.63-14.58,1.79-21.91
						C283.97,114.5,279.88,120.13,279.88,120.13z"/>
				</g>
			</g>
		</g>
		<g>
			<path class="st1" d="M256.97,135.34H103.42c-7.19,0-13.03,6.38-13.03,14.25l0,0h179.6l0,0
				C269.99,141.72,264.16,135.34,256.97,135.34z"/>
			<path class="st8" d="M275.78,135.34H122.23c-7.19,0-13.03,6.38-13.03,14.25l0,0h179.6l0,0
				C288.81,141.72,282.97,135.34,275.78,135.34z"/>
		</g>
		<path class="st9" d="M350,149.42v0.15c0,0.24-0.18,0.43-0.4,0.43H0.4c-0.22,0-0.4-0.2-0.4-0.43v-0.15c0-0.24,0.18-0.43,0.4-0.43
			H349.6C349.82,148.98,350,149.18,350,149.42z"/>
	</g>
</g>
</svg>
