<svg id="Layer_1" data-name="Layer 1" xmlns="http://www.w3.org/2000/svg" viewBox="0 0 350 350"><defs><style>.cls-1{fill:#fbebdb;}.cls-2{fill:#fab17e;}.cls-3{fill:#243962;}.cls-4{fill:#ee9960;}.cls-5{fill:#2b488c;}.cls-6{fill:#f89748;}.cls-7{fill:#2e3b65;}</style></defs><path class="cls-1" d="M185.38,350a190.9,190.9,0,0,1-27.94-2.13C53.66,332.15,0,232.38,0,144.76,0,49.35,100.76-18.44,186.34,4.48,270.49,27,350,113.73,350,209.14"/><path class="cls-1" d="M350,209.14c0,83.67-59.66,128.92-132.41,138.78l-1.46.2q-6.75.87-13.64,1.34h0q-8,.54-16.14.54"/><path class="cls-2" d="M186.34,350q8.13,0,16.14-.54h0q6.88-.46,13.64-1.34c-2.16-4.54-4.35-9-6.21-13.2-3.36-7.54-5.69-14.09-5-18.29v0c.11-.65.25-1.93.43-3.68.67-6.48,1.87-19.4,3.87-30.78.26-1.51.54-3,.84-4.42h0c.18-.92.38-1.82.58-2.7a43.59,43.59,0,0,0,1-6.88c1-14.75-5.87-27.09-12.83-34.21a33.45,33.45,0,0,0-2.74-2.55,17.56,17.56,0,0,0-7.08-4c-1.8-2-4.2-9.89-6.16-17.31-.73-2.8-1.4-5.53-2-7.84a2.25,2.25,0,0,1,0-.22c-.62-2.57-1.07-4.6-1.29-5.61h0c-.1-.44-.15-.68-.15-.68l-.52.4-2.11,1.66h0l-5.19,4.09-8.05,6.34a.17.17,0,0,0,0,.07c.22,1,.4,2.06.56,3.16.07.58.14,1.17.2,1.78.18,1.73.29,3.53.34,5.31v0c0,1.33.07,2.64.07,3.91,0,2.81-1.89,5-4.14,4.92h-.15a82.31,82.31,0,0,0-12.06,0c-4.9.62-10.19,1.54-16.05,2.19l-.13,0a106.54,106.54,0,0,1-22.29.31l1.06-61.4s5.08-6.22,5.38-9.57.5-17.61-1.65-19.08c-1-.66-1.21,10.29-1.92,10.87-2.18,1.75-10.57,2.65-9.75,13.42h0c-2.89,12.53-17,75-11.07,79h0a53.3,53.3,0,0,0,5.19,4l1.17.77c.23.15.45.29.68.42.65.42,1.32.81,2,1.19.37.23.75.43,1.13.64s1,.57,1.59.85l1,.5q1.15.58,2.34,1.11l.66.3.23.11.77.32a0,0,0,0,0,0,0l1.37.57,1.37.54c.91.36,1.84.7,2.76,1l1,.36.57.19,1.33.43c1,.32,2,.62,3,.9l1,.29.13,0,1.32.35,1.41.35c1.11.28,2.23.54,3.33.78s1.93.41,2.88.59l1.75.33,1.6.28,1.52.25,2.21.34h0c.32.05.64.1,1,.13l1.26.18.85.1c-.24.78-.44,1.55-.62,2.33s-.32,1.51-.43,2.27a.08.08,0,0,0,0,0,25.88,25.88,0,0,0-.23,6.08c1.62,18.75,13.62,42.75,17.23,58.45a41,41,0,0,1,.94,5.53,97,97,0,0,1,.11,11.74A190.9,190.9,0,0,0,185.38,350"/><path class="cls-3" d="M171.54,179.59s12.41,5.5,5.61,22.77c0,0,10.14-.19,12.28-4.18a11.71,11.71,0,0,1-.58,2.46s9.52-3.15,12.51-8.28-14.23-64.08-38.7-47.45c0,0-22.65,6.34-12.76,37.42s1.53,34.26,1.53,34.26,2.68.54,3.8.11a5.06,5.06,0,0,0,1.49-2.65,9.09,9.09,0,0,1-.17,2.62s9.29-2.37,12.75-8.32S174.44,185.67,171.54,179.59Z"/><path class="cls-4" d="M162.87,202.76s1.35,10.72,2,18c11.67-4.65,12.76-17.76,14.56-25Z"/><path class="cls-3" d="M177.65,195s4.81-12.12,5.37-22c.4-7.07,3.71-36.45-16.75-30,0,0-14.31,5.58-19.57,11.1-4.19,4.38-10,13.42-.8,34.89l2.53,7.33Z"/><path class="cls-2" d="M159.79,213.41s25.22-9,20.46-28.48-4.71-33.72-21-28.78S141.63,169.69,142,176.67,153.11,215.26,159.79,213.41Z"/><path class="cls-3" d="M154.3,158s-8.33,10.32-8.37,15.75,1.91,15.83-.56,16.39c0,0-9-13.54-5.33-24.52C143.93,153.92,154.3,158,154.3,158Z"/><path class="cls-3" d="M162.66,144.91s-.24.07-.66.22c.77,2.14-12.92,17.23-12.92,17.23s10.77,22,26,24.62a61.35,61.35,0,0,1-14.39-12.1c4.11,3.54,8.65,6.26,12.8,6,3.39.21,8.39,17.19-1.07,21.46,0,0,12.6,1.65,17.05-4.18a12.14,12.14,0,0,1-.57,2.46s9.51-3.16,12.5-8.29S187.13,128.28,162.66,144.91Z"/><path class="cls-4" d="M147.1,262.12c-14.61-1.23-35-4.83-49.93-14.94l-5.19-4h0s0,0,0,0c.29.14,1.84.9,4.28,1.91,9.52,4,32.54,11.9,46.93,3C153.42,241.7,151.16,251.77,147.1,262.12Z"/><path class="cls-4" d="M185.38,350A215.47,215.47,0,0,1,178,328.1c-1.16-4.14-1.73-6.7-1.73-6.7A52.88,52.88,0,0,1,201.37,313c1.35-.08,2.69-.1,4-.07-.18,1.75-.32,3-.43,3.68v0c-.71,4.2,1.62,10.75,5,18.29,1.86,4.18,4.05,8.66,6.21,13.2q-6.75.87-13.64,1.34h0q-8,.54-16.14.54"/><path class="cls-5" d="M212.78,251.12c-7-15.46-23.76-23.71-23.76-23.71-5.22,20.71-27.63,32.14-27.63,32.14-6.43-12.93-.95-32.13-.95-32.15h0s-8.53-2.69-17.16-.38a102.19,102.19,0,0,1-11.09,2.6s-1.42,27.24,7.77,34.23a32.06,32.06,0,0,0-.88,3.86c-2.44,15.55,12.22,62.69,12.22,62.69,31.64,2.15,53.65-13.77,53.65-13.77s7.81-26.35,9.42-46.71C215,262.22,214.7,255.36,212.78,251.12Z"/><polygon class="cls-6" points="127.46 152.84 127.46 152.84 153.41 60.02 169.78 85.67 196.99 20.6 196.99 20.6 170.94 119.16 153.63 92.75 127.46 152.84"/><polygon class="cls-6" points="77.25 188.89 77.25 188.89 47.85 137.85 64.65 136.67 47.35 95.03 47.35 95.03 79.13 148.25 61.67 149.76 77.25 188.89"/><polygon class="cls-6" points="223.03 201.43 223.03 201.43 254.17 152 259.79 171.73 287.07 139.4 287.07 139.4 254.92 192.27 248.85 171.85 223.03 201.43"/><path class="cls-7" d="M214.37,269.92c-1.61,20.36-9.42,46.71-9.42,46.71-11.91-4.74-.22-49.05-.22-49.05C209.85,267.41,211.61,267.56,214.37,269.92Z"/><path class="cls-2" d="M246.2,305h0C231.33,256.38,207.1,230,207.1,230c-13.16-3.43-17,7.44-20.15,23.28-.82,4.12,27.51,33.54,39.33,49.68h0l-16.36,32-7.43,14.54q6.88-.46,13.64-1.34l1.46-.2C231.09,330.6,248.41,307.38,246.2,305Z"/><path class="cls-5" d="M189,227.41s11.55-1.88,17.73,2.62S226.62,255,226.62,255s-8.8,26.48-24.93,24.18c0,0-24.81-31-18.84-38.47S189,227.41,189,227.41Z"/></svg>