<?xml version="1.0" encoding="utf-8"?>
<!-- Generator: Adobe Illustrator 24.3.0, SVG Export Plug-In . SVG Version: 6.00 Build 0)  -->
<svg version="1.1" id="Layer_1" xmlns="http://www.w3.org/2000/svg" xmlns:xlink="http://www.w3.org/1999/xlink" x="0px" y="0px"
	 viewBox="0 0 350 350" style="enable-background:new 0 0 350 350;" xml:space="preserve">
<style type="text/css">
	.st0{fill:#FBEBDB;}
	.st1{fill:#FAB17E;}
	.st2{fill:#243962;}
	.st3{fill:#EE9960;}
	.st4{fill:#F9A971;}
	.st5{fill:#2B488C;}
	.st6{fill:#F89748;}
	.st7{fill:#FEE7DC;}
	.st8{fill:#EC7E2A;}
</style>
<g>
	<path class="st0" d="M186.34,4.48C270.49,27.02,350,113.73,350,209.14"/>
	<path class="st0" d="M350,209.14c0,84.6-60.99,129.91-134.81,139.1c-9.44,1.18-19.09,1.76-28.85,1.76c-1.84,0-3.66-0.03-5.47-0.08
		c-0.09,0-0.17-0.01-0.26-0.01c-2.57-0.07-5.12-0.19-7.63-0.36c-10.43-0.7-20.41-2.22-29.92-4.47c-8.31-1.97-16.26-4.49-23.86-7.53
		c-2.15-0.86-4.28-1.76-6.38-2.7C38.32,301.52,0,218.8,0,144.76C0,49.35,100.76-18.44,186.34,4.48"/>
	<g>
		<path class="st1" d="M191.18,148.56c-4.06-0.49-7.89-0.79-11.5-0.93c-3.15-0.13-5.93-2.61-7.03-6.29
			c-1.82-6.09-3.4-14.01-4.19-23.54l-1.42,0.55l-23.85,9.22c0,0,1.37,9.47,2.16,18.44c0.1,1.1,0.18,2.21,0.26,3.29
			c0.1,1.41-0.62,2.71-1.72,3.11c-11.44,4.2-16.15,9.59-16.15,9.59s3.2,51.8,18.76,111.04c1.5,5.71-21.36,39.87-21.36,39.87
			c5.57,22.18,81.49-9.53,81.49-9.53s-5.19-19.63,1.58-67.58C216.11,179.89,191.18,148.56,191.18,148.56z"/>
		<path class="st1" d="M191.18,148.56c0,0,23.9,3.62,37.44,88.29c0,0,3.68,24.55-3.68,27.46
			C217.58,267.23,179.5,212.14,191.18,148.56z"/>
		<path class="st2" d="M153.91,98.93c0,0,15.34,6.8,6.93,28.15c0,0,12.54-0.24,15.18-5.16c0,0-0.26,2.01-0.71,3.04
			c0,0,11.76-3.9,15.45-10.24c3.69-6.34-17.58-79.2-47.83-58.65c0,0-28,7.83-15.77,46.25c12.23,38.42,1.89,42.35,1.89,42.35
			s3.31,0.67,4.69,0.14c0,0,1.79-1.73,1.85-3.28c0,0,0.14,2.34-0.21,3.24c0,0,11.48-2.93,15.76-10.28
			C155.42,127.14,157.49,106.46,153.91,98.93z"/>
		<path class="st3" d="M143.19,127.58c0,0,1.67,13.25,2.45,22.24c12.48-12.51,14.02-23.7,16.24-32.66L143.19,127.58z"/>
		<path class="st2" d="M161.46,117.98c0,0,5.95-14.99,6.63-27.22c0.49-8.73,4.58-45.06-20.7-37.09c0,0-17.69,6.91-24.2,13.72
			c-5.17,5.42-12.35,16.59-0.99,43.13l3.14,9.06L161.46,117.98z"/>
		<path class="st1" d="M139.38,140.74c0,0,31.18-11.16,25.3-35.2c-5.88-24.05-5.82-41.68-25.98-35.58s-21.76,16.74-21.37,25.36
			C117.73,103.95,131.12,143.03,139.38,140.74z"/>
		<path class="st2" d="M127.09,76.24c0,0-4.8,8.71-4.84,15.42c-0.04,6.71,2.36,19.58-0.7,20.27c0,0-11.11-16.74-6.58-30.31
			C119.77,67.21,127.09,76.24,127.09,76.24z"/>
		<path class="st4" d="M217.73,235.82c0,0,0.08-30.88-4.51-34.58S207.14,236.58,217.73,235.82z"/>
		<path class="st5" d="M139.45,154.26c0,0,20.26,35.06,38.82,33.19c0,0,7.22-25.71,0.86-39.86c0,0,4.75,0.19,6.39,0.32
			c1.38,0.11,5.66,0.66,5.66,0.66L208.77,186c4.08,8.69,5.72,18.83,4.66,28.81l-6.8,63.66c0,0-18.4,14.98-60.13-5.41l-11.75-50.35
			L139.45,154.26z"/>
		<path class="st1" d="M208.64,197.53c0.01,0.07-0.06,0.41-0.22,0.98c-0.03,0.13-0.08,0.28-0.12,0.43c-0.09,0.32-0.2,0.68-0.32,1.09
			c-0.01,0.04-0.03,0.09-0.04,0.13c-3.63,11.87-20.69,60.07-37.88,73.28c-0.86,0.96-1.83,1.78-2.9,2.37
			c-0.12,0.06-0.24,0.12-0.36,0.18c-0.13,0.06-0.26,0.13-0.39,0.18c-0.06,0.03-0.11,0.05-0.17,0.07c-0.86,0.35-1.79,0.54-2.77,0.54
			c-0.23,0-0.47-0.01-0.72-0.03c-8.91-0.83-46.98-69.41-47.7-90.26c-0.46-13.31,12.69-24.49,12.69-24.49
			c13.41,8.77,26.4,36.33,35.52,60.15c1.89,4.93,3.6,9.7,5.12,14.12c17.33-20.47,31.13-44.51,31.13-44.51L208.64,197.53z"/>
		<path class="st6" d="M208.31,310.19c-1.01-4.33-1.69-6.8-1.69-6.8s-51.67,3.41-64.68-18.02c0-0.01,0-0.01-0.01-0.02
			c0,0,0,0.01-0.01,0.01c-0.16,0.18-2.46,2.88-5.83,7.48l-0.03,0.04c-4.22,5.75-10.09,14.45-15.55,24.92
			c-2.77,5.29-5.42,11.02-7.7,17.06c2.1,0.94,4.22,1.84,6.38,2.7c7.6,3.03,15.55,5.56,23.86,7.53c9.51,2.25,19.49,3.77,29.92,4.47
			c2.52,0.17,11.52,0.45,13.36,0.45c9.76,0,19.41-0.59,28.85-1.76C213.08,331.87,210.14,318,208.31,310.19z"/>
		<path class="st3" d="M168.39,236.29c-8.55,14.82-24.64-13.97-25.19-15.04l4.14-4.37c0,0,9.26,1.43,15.93,5.29
			C165.15,227.1,166.87,231.88,168.39,236.29z"/>
		<path class="st7" d="M131.81,128.59c0,0,3.36-4.01,10.81-4.75c0,0-0.11,3.96-4.32,5.86C134.12,131.58,131.81,128.59,131.81,128.59
			z"/>
		<path class="st2" d="M142.52,56.57l-17.56,20.04c0,0,13.31,27.23,32.08,30.44c0,0-9.65-5.49-17.77-14.95
			c5.07,4.38,10.69,7.73,15.82,7.44c4.19,0.25,10.37,21.24-1.32,26.52c0,0,15.58,2.04,21.07-5.16c0,0-0.26,2.01-0.71,3.04
			c0,0,11.76-3.91,15.45-10.25C193.27,107.35,172.77,36.02,142.52,56.57z"/>
		<path class="st5" d="M139.45,154.26c0,0-21.13,9-25.77,20.08c-4.64,11.08,3.32,39.63,12.89,53.99c0,0,23.7-0.31,34.82-21.74
			C161.38,206.59,143.78,159.04,139.45,154.26z"/>
		<path class="st5" d="M191.18,148.56c0,0,14.16,1.12,23.37,26.09c0,0,0.52,17.27-10.35,17.68
			C193.33,192.75,191.18,148.56,191.18,148.56z"/>
		<path class="st1" d="M211.5,228.73c-9.9-3.4-19.28-6.75-27.73-9.86c-24.04-8.84-40.59-15.68-40.59-15.68l-0.05,0.09l0.05-0.08
			c0,0-5.83-6.88-6.18-10.15c-0.31-2.96-6.46-4.5-10.61-6.04c-0.56-0.21-1.06,0.51-0.81,1.17c0.46,1.23,2.13,3.21,3.8,3.9
			c2.94,1.21-2.97,3.59-7.58,0.45c-2.85-1.94-7.82-8.41-9.36-6.02c-1.55,2.38,0.22,14.75,4.15,19.97c2.62,3.48,15.65,3.54,20.4,6.87
			h0c37.91,21.84,65.35,61.28,87.92,50.97C224.94,264.32,229.86,235.02,211.5,228.73z"/>
		<path class="st4" d="M183.78,218.88l-8.51,9.83c0,0-33.34-21.3-32.25-25.21c0.03-0.11,0.09-0.21,0.18-0.29
			C143.19,203.2,159.74,210.03,183.78,218.88z"/>
		<path class="st1" d="M199.51,191.78c0,0,2.82-9.36,1.97-12.49c-0.81-3.02,5.19-7.32,8.32-10.98c0.15-0.17,0.39-0.05,0.41,0.2
			c0.05,0.99-0.07,3.03-1.67,4.97c-2.22,2.69,0.81,3.28,2.85,0.12c2.03-3.15-2.23-9.6,0-8.3c2.23,1.3,9.3,8.74,8.56,13.42
			c-0.75,4.68-8.2,13.24-11.31,18.82L199.51,191.78z"/>
		<path class="st8" d="M136.07,292.89c0,0,25.35,30.53,72.24,17.31l-2.49-11.3c0,0-40.3,13.73-62.19-16.87L136.07,292.89z"/>
		<path class="st6" d="M221.87,108.31c0,0,11.6-11.55,18.24-1.73c6.64,9.82-22.76,23.68-22.76,23.68s-12.91-29.38-5.76-31.88
			C218.74,95.87,221.87,108.31,221.87,108.31z"/>
		<path class="st6" d="M97.12,42.12c0,0,1.54-10.7,7.54-9.55c6,1.15-2.7,21.44-2.7,21.44S87.1,47.23,89.48,42.68
			C91.86,38.13,97.12,42.12,97.12,42.12z"/>
		<path class="st6" d="M99.51,138.85c0,0-2.15-12.02,4.52-14.08c6.67-2.06,4.71,23.88,4.71,23.88s-17.92,1-17.02-5.06
			C92.61,137.53,99.51,138.85,99.51,138.85z"/>
		<path class="st3" d="M208.64,197.53c0.01,0.07-0.06,0.41-0.22,0.98c-0.03,0.13-0.08,0.28-0.12,0.43c-0.09,0.32-0.2,0.68-0.32,1.09
			c-0.01,0.04-0.03,0.09-0.04,0.13c-3.82,12.6-22.64,66.09-40.78,75.65c-0.12,0.06-0.24,0.12-0.36,0.18
			c-0.13,0.06-0.26,0.13-0.39,0.18c-0.06,0.03-0.11,0.05-0.17,0.07c-0.86,0.35-1.79,0.54-2.77,0.54
			C156.97,270.03,208.64,197.53,208.64,197.53z"/>
	</g>
</g>
</svg>
